<?xml version="1.0" standalone="no"?>
<!DOCTYPE svg PUBLIC "-//W3C//DTD SVG 20010904//EN"
 "http://www.w3.org/TR/2001/REC-SVG-20010904/DTD/svg10.dtd">
<svg version="1.0" xmlns="http://www.w3.org/2000/svg"
 width="1630.000000pt" height="1630.000000pt" viewBox="0 0 1630.000000 1630.000000"
 preserveAspectRatio="xMidYMid meet">
<metadata>
Created by potrace 1.11, written by Peter Selinger 2001-2013
</metadata>
<g transform="translate(0.000000,1630.000000) scale(0.100000,-0.100000)"
fill="#000000" stroke="none">
<path d="M7695 16123 c-572 -34 -1002 -94 -1468 -204 -1538 -364 -2682 -1127
-3162 -2108 -152 -310 -232 -615 -255 -972 -17 -260 -25 -2438 -11 -3020 13
-528 21 -658 51 -805 42 -210 146 -490 256 -689 59 -107 215 -345 238 -364 21
-17 132 -28 199 -19 184 24 270 185 177 332 -37 58 -110 106 -330 217 -140 71
-175 94 -231 149 -81 80 -111 148 -111 255 0 195 138 340 356 375 79 13 146 6
239 -22 65 -20 70 -20 103 -4 19 9 55 16 80 16 37 0 51 -6 74 -28 l28 -29 0
-151 c0 -170 -6 -190 -73 -212 -77 -25 -145 21 -145 98 0 36 -6 49 -30 72 -66
62 -227 82 -315 40 -59 -29 -88 -70 -93 -136 -3 -41 0 -61 18 -92 31 -55 84
-91 258 -174 241 -114 342 -195 407 -324 28 -54 30 -67 30 -164 0 -99 -2 -109
-33 -172 -60 -122 -221 -239 -350 -255 -29 -3 -52 -10 -52 -14 0 -15 208 -219
325 -319 715 -611 1708 -1046 2795 -1224 547 -89 1252 -134 1530 -98 421 56
744 188 938 384 150 153 207 281 205 468 -3 386 -303 658 -863 784 -164 36
-290 54 -485 67 -93 6 -176 13 -183 15 -8 2 6 20 35 43 130 103 190 244 180
426 -5 104 -30 184 -82 262 l-35 53 40 0 c22 0 57 -7 77 -15 19 -8 44 -15 54
-15 14 0 33 -31 76 -122 110 -236 285 -583 309 -615 56 -74 156 -88 228 -32
14 11 44 59 67 107 l42 87 37 -80 c59 -125 119 -166 209 -143 69 17 103 65
227 313 64 126 120 234 124 239 8 8 120 -34 213 -81 27 -13 52 -22 55 -19 8 9
16 758 8 800 -7 35 -8 36 -54 36 -97 0 -154 75 -117 153 27 58 52 63 287 62
230 -2 247 -6 274 -70 31 -75 -29 -145 -124 -145 l-39 0 -6 -82 c-9 -117 -9
-898 1 -898 4 0 40 -25 80 -55 l73 -55 107 0 c111 1 167 14 203 46 11 10 38
55 59 101 24 49 50 89 66 100 57 37 147 7 174 -57 16 -37 5 -78 -47 -189 -62
-130 -138 -184 -279 -198 l-62 -6 68 -86 c72 -91 143 -204 179 -287 26 -57 25
-81 -15 -364 -56 -395 -141 -685 -247 -840 -17 -25 -110 -125 -207 -224 -186
-189 -193 -194 -433 -323 -329 -175 -570 -259 -972 -337 -645 -125 -1057 -124
-1727 4 -393 75 -673 151 -1308 352 -417 132 -450 144 -525 193 -162 107 -338
177 -549 220 -637 130 -1313 -47 -1590 -416 -99 -132 -115 -192 -138 -524 -18
-249 -17 -1461 0 -1643 46 -477 185 -865 453 -1262 799 -1182 2562 -1934 4704
-2005 306 -10 758 16 1117 65 994 136 1931 475 2676 967 575 380 1006 832
1252 1313 145 285 220 543 241 825 5 71 12 720 15 1440 6 1315 -5 2357 -26
2480 -20 114 -52 240 -88 349 l-37 108 -190 -1 c-199 -1 -210 1 -233 46 -21
38 -14 73 21 108 l33 33 -117 129 c-119 130 -156 156 -187 137 -14 -9 -17 -31
-20 -136 l-3 -126 45 -6 c88 -14 124 -99 67 -157 l-29 -29 -387 0 -386 0 -25
25 c-16 17 -24 35 -24 60 0 63 28 93 100 105 l35 5 0 240 c0 237 0 241 -25
285 -30 53 -93 90 -155 90 -90 0 -187 -56 -224 -129 -25 -48 -36 -201 -26
-365 l7 -126 32 0 c17 0 46 -9 63 -20 53 -32 56 -98 8 -146 -24 -24 -27 -24
-212 -24 -103 0 -195 4 -203 10 -9 6 -19 5 -28 -2 -19 -17 -367 -18 -409 -2
-38 15 -53 40 -53 92 0 54 36 89 98 97 26 4 53 8 60 10 9 3 12 66 12 268 0
200 -3 267 -12 274 -7 6 -32 13 -56 16 -52 6 -79 28 -91 73 -13 46 3 98 37
125 24 19 37 21 117 17 108 -4 153 -27 187 -92 21 -40 22 -52 23 -360 l0 -320
35 -8 c19 -5 45 -14 56 -19 15 -8 27 -8 42 0 11 6 34 11 51 11 l31 0 3 143 c1
78 1 203 -1 277 -3 147 -8 160 -62 160 -93 0 -117 149 -30 192 68 34 202 18
261 -32 l33 -27 36 23 c67 44 148 67 245 68 175 1 277 -64 337 -215 19 -49 22
-81 27 -319 l6 -264 35 -9 c39 -9 39 -9 96 -1 l41 6 7 81 c3 45 6 271 6 502
l0 420 -83 66 c-910 729 -2246 1191 -3667 1270 -589 32 -1114 -67 -1416 -267
-259 -172 -376 -442 -314 -725 l7 -37 -77 -4 c-89 -4 -113 -18 -132 -79 -20
-67 19 -119 90 -119 87 -1 95 -26 86 -254 -4 -91 -10 -166 -13 -166 -3 0 -26
14 -49 30 -76 51 -147 72 -242 72 -184 -1 -339 -93 -419 -250 -12 -24 -24 -42
-26 -40 -2 1 -40 38 -83 81 l-79 78 18 -53 c17 -48 18 -75 13 -310 -7 -277 -6
-288 43 -288 36 0 83 -51 83 -90 0 -74 -50 -116 -135 -114 -54 2 -86 13 -122
46 -22 20 -22 20 -50 0 -90 -64 -275 -84 -385 -42 -79 29 -148 94 -182 171
-24 53 -28 71 -24 134 3 62 8 80 33 117 64 91 158 134 415 192 l105 23 9 35
c12 48 -16 106 -64 131 -69 36 -189 6 -273 -69 -52 -47 -106 -44 -149 10 -52
64 22 165 159 216 126 47 291 48 384 2 21 -11 39 -18 39 -17 0 1 -25 39 -55
84 -71 106 -124 218 -169 356 l-36 109 0 207 0 208 119 178 c263 393 492 628
841 862 123 82 219 121 556 226 468 145 814 180 1420 140 724 -47 1223 -141
2109 -395 310 -89 326 -95 505 -185 102 -51 217 -104 257 -118 447 -161 1029
-127 1461 84 214 106 406 276 504 449 l26 45 5 615 c10 1122 -17 1566 -119
1937 -106 388 -316 700 -765 1138 -886 866 -2245 1392 -3833 1485 -158 9 -718
11 -851 3z m665 -1787 c19 -3 62 -8 95 -11 138 -13 336 -42 430 -65 22 -5 88
-21 147 -35 567 -134 1055 -424 1329 -789 145 -194 220 -378 234 -577 4 -52 9
-105 11 -119 3 -22 17 -800 27 -1575 3 -212 6 -255 20 -282 10 -18 15 -33 13
-33 -3 0 -92 25 -198 55 -763 219 -1307 322 -1948 370 -732 55 -1118 16 -1685
-169 -320 -104 -380 -130 -515 -221 -310 -208 -549 -434 -758 -714 -47 -64
-90 -120 -94 -126 -6 -6 -8 575 -5 1440 l4 1450 40 116 c60 171 161 359 239
444 11 11 41 46 68 78 72 87 257 235 401 324 104 64 353 185 430 209 6 2 55
20 110 39 55 20 107 38 115 40 8 2 58 14 110 29 52 14 106 27 120 30 23 4 87
17 150 31 136 28 231 39 545 64 97 8 507 5 565 -3z m2548 -5095 c17 -12 38
-41 48 -67 17 -44 16 -47 -2 -92 -35 -84 -124 -116 -204 -73 -44 23 -76 92
-66 144 19 101 140 148 224 88z m-6678 -14 c25 -12 55 -36 66 -54 29 -43 38
-161 29 -359 l-7 -153 68 34 c212 106 448 47 531 -133 35 -74 43 -147 43 -395
0 -165 3 -219 13 -221 6 -3 25 -7 41 -11 16 -3 41 -19 57 -35 39 -39 39 -82 0
-121 l-29 -29 -192 0 c-189 0 -191 0 -215 25 -17 17 -25 35 -25 60 0 63 28 93
100 105 l35 5 0 240 c0 237 0 241 -25 285 -30 53 -93 90 -155 90 -90 0 -187
-56 -224 -129 -25 -48 -36 -201 -26 -365 l7 -126 30 0 c95 0 141 -92 79 -159
l-29 -31 -191 0 c-190 0 -192 0 -216 25 -61 60 -8 165 83 165 l29 0 6 448 c3
246 3 492 -1 546 l-7 99 -58 12 c-70 14 -87 29 -94 83 -7 54 11 97 50 116 44
21 166 12 227 -17z m2798 -358 c62 -44 158 -97 227 -126 33 -14 63 -28 68 -32
4 -4 -15 -20 -42 -34 -188 -103 -288 -343 -236 -566 17 -70 55 -154 86 -187
10 -11 19 -23 19 -26 0 -10 -97 19 -121 36 -13 9 -38 16 -55 16 -19 0 -38 8
-50 21 -18 20 -19 43 -22 348 -2 179 0 398 3 487 l7 161 37 -34 c20 -19 55
-48 79 -64z m-499 -335 c91 -38 152 -121 171 -235 12 -73 1 -169 -27 -222 -18
-35 -27 -34 -165 29 -193 89 -368 194 -368 221 1 27 34 94 65 131 77 91 212
123 324 76z m1135 -4 c134 -68 200 -243 151 -407 -62 -207 -339 -276 -494
-122 -109 108 -121 318 -26 442 62 81 144 119 250 114 50 -2 84 -10 119 -27z
m845 -3 c35 -18 195 -361 186 -402 -7 -39 -85 -175 -100 -175 -10 0 -193 362
-259 514 -40 91 -40 90 62 82 48 -4 98 -13 111 -19z m314 -44 c27 -4 37 -10
37 -24 0 -26 -47 -129 -59 -129 -10 0 -58 95 -72 143 -8 29 -8 29 24 23 18 -4
49 -9 70 -13z m333 -84 c46 -14 64 -25 64 -37 0 -19 -170 -365 -194 -396 -21
-26 -33 -14 -87 88 -51 98 -53 82 34 269 l51 109 34 -7 c19 -3 63 -15 98 -26z
m1408 -5124 c-41 -122 -106 -259 -167 -350 -194 -289 -512 -530 -932 -704 -95
-40 -369 -132 -383 -129 -4 1 -14 -2 -22 -5 -29 -13 -227 -56 -345 -76 -314
-52 -781 -80 -814 -49 -8 7 -11 8 -8 3 6 -12 -113 -9 -248 6 -49 5 -117 12
-149 15 -33 3 -67 9 -76 14 -10 5 -20 7 -23 4 -8 -9 -214 32 -386 77 -373 96
-723 264 -983 470 -169 135 -367 368 -448 529 -83 164 -103 356 -120 1155 -5
259 -10 610 -11 780 0 171 -4 336 -8 368 -5 39 -4 56 3 54 52 -20 623 -195
736 -226 451 -123 947 -220 1280 -251 280 -25 646 -10 975 41 528 81 893 192
1235 376 312 167 310 166 521 380 238 242 294 320 362 508 14 39 29 79 34 90
4 11 9 -653 11 -1475 l2 -1495 -36 -110z"/>
<path d="M12430 8608 c0 -79 -3 -152 -6 -164 -8 -30 19 -54 52 -45 25 6 163
110 164 123 0 7 -199 228 -206 228 -2 0 -4 -64 -4 -142z"/>
<path d="M12697 8344 c-33 -24 -45 -39 -40 -49 11 -18 357 -344 361 -340 13
13 -238 415 -263 422 -5 1 -32 -13 -58 -33z"/>
<path d="M5522 8194 c-159 -29 -260 -81 -263 -136 -5 -94 45 -140 152 -139
141 0 207 55 224 187 7 53 -7 105 -27 103 -7 -1 -46 -7 -86 -15z"/>
</g>
</svg>
