<?xml version="1.0" standalone="no"?>
<!DOCTYPE svg PUBLIC "-//W3C//DTD SVG 20010904//EN"
 "http://www.w3.org/TR/2001/REC-SVG-20010904/DTD/svg10.dtd">
<svg version="1.0" xmlns="http://www.w3.org/2000/svg"
 width="1630.000000pt" height="1630.000000pt" viewBox="0 0 1630.000000 1630.000000"
 preserveAspectRatio="xMidYMid meet">
<metadata>
Created by potrace 1.11, written by Peter Selinger 2001-2013
</metadata>
<g transform="translate(0.000000,1630.000000) scale(0.100000,-0.100000)"
fill="#000000" stroke="none">
<path d="M7907 16124 c-1 -1 -78 -5 -172 -9 -93 -3 -186 -8 -205 -10 -19 -1
-75 -6 -125 -9 -200 -15 -433 -44 -625 -76 -63 -11 -132 -22 -154 -26 -21 -3
-48 -8 -60 -10 -11 -3 -32 -7 -46 -10 -439 -84 -1001 -250 -1343 -398 -274
-117 -534 -247 -718 -357 -735 -439 -1242 -997 -1484 -1634 -39 -103 -88 -264
-101 -330 -2 -11 -10 -54 -18 -95 -24 -120 -28 -160 -41 -390 -24 -425 -24
-2553 0 -3247 6 -181 17 -367 22 -375 2 -5 -94 -8 -214 -9 -120 0 -228 -2
-241 -5 -56 -10 -127 -78 -142 -135 -7 -25 -9 -325 -8 -846 3 -784 4 -809 23
-838 37 -56 80 -88 135 -100 8 -2 404 -4 880 -4 l865 -1 85 -61 c372 -266 880
-520 1390 -694 224 -76 584 -175 765 -209 11 -2 70 -14 130 -26 61 -11 126
-23 145 -26 19 -2 58 -8 85 -13 28 -6 77 -13 110 -17 33 -4 62 -8 65 -9 3 0
37 -5 75 -9 39 -4 81 -9 95 -11 14 -2 61 -6 105 -10 44 -3 98 -8 120 -10 22
-3 74 -7 115 -10 41 -4 91 -8 110 -10 227 -23 504 -23 675 1 51 7 158 23 195
29 123 21 337 93 459 155 124 62 195 114 291 211 91 93 150 199 177 314 21 95
4 264 -37 360 l-19 45 629 0 630 0 -4 -27 c-2 -16 -7 -55 -11 -88 -10 -96 -15
-123 -40 -260 -32 -166 -30 -159 -50 -235 -54 -213 -126 -381 -203 -470 -87
-102 -367 -375 -402 -393 -19 -10 -62 -34 -95 -53 -126 -73 -444 -224 -545
-258 -167 -56 -371 -109 -545 -140 -103 -19 -145 -26 -180 -31 -22 -3 -65 -10
-95 -15 -30 -5 -80 -12 -110 -15 -30 -3 -73 -8 -95 -11 -195 -24 -615 -23
-759 1 -12 2 -43 7 -71 10 -27 3 -117 17 -200 31 -82 15 -160 28 -172 29 -12
2 -34 6 -50 9 -15 4 -39 9 -53 11 -14 3 -36 7 -50 11 -14 3 -38 7 -55 10 -16
3 -43 9 -60 14 -16 5 -41 11 -55 14 -14 2 -47 10 -75 16 -27 6 -58 13 -69 16
-10 2 -44 11 -75 20 -31 9 -63 17 -71 19 -8 2 -40 10 -70 19 -30 8 -66 18 -80
22 -63 16 -243 71 -440 134 -118 38 -301 96 -405 129 -105 34 -194 61 -198 61
-3 0 -38 21 -78 46 -268 174 -594 256 -984 249 -180 -3 -213 -6 -295 -20 -19
-3 -51 -8 -70 -11 -109 -18 -287 -78 -401 -134 -165 -82 -259 -154 -350 -268
-85 -106 -126 -201 -134 -312 -1 -14 -5 -68 -10 -120 -25 -303 -35 -965 -21
-1430 4 -129 9 -253 10 -275 17 -191 25 -247 52 -370 9 -38 18 -81 21 -95 2
-14 26 -91 54 -173 255 -766 875 -1420 1794 -1894 354 -183 803 -357 1180
-459 134 -36 321 -84 342 -88 16 -4 196 -41 248 -52 23 -5 107 -21 148 -28 15
-3 53 -10 85 -15 31 -6 73 -13 92 -15 19 -3 49 -7 65 -10 27 -4 147 -21 222
-30 16 -2 60 -7 98 -11 39 -4 78 -9 87 -11 9 -1 57 -6 105 -9 48 -4 99 -8 113
-11 157 -25 972 -25 1203 1 86 9 147 15 202 20 33 3 71 8 85 10 14 2 45 7 70
10 25 4 56 8 70 10 14 2 45 7 70 10 25 3 52 8 60 10 8 2 33 7 55 10 46 6 49 7
195 36 58 11 130 27 160 34 30 8 66 16 80 19 143 29 488 130 710 209 322 115
736 302 957 433 41 24 77 44 79 44 3 0 17 8 32 19 15 10 83 53 152 97 105 66
161 104 225 152 6 4 35 25 65 47 30 22 64 47 75 56 11 9 63 52 115 95 89 73
353 329 431 419 19 22 59 72 89 110 30 39 57 72 61 75 12 10 147 216 186 285
150 263 236 505 280 786 13 79 20 194 23 374 6 337 6 3095 0 3375 l-5 215 235
5 235 5 42 29 c23 15 53 45 65 65 l23 36 2 817 c2 622 0 824 -9 845 -18 42
-45 74 -86 102 l-37 26 -878 3 -878 2 -157 104 c-515 341 -1100 599 -1772 781
-47 13 -299 75 -320 79 -14 2 -91 18 -171 35 -127 26 -296 54 -459 76 -25 3
-56 8 -70 10 -74 11 -184 22 -285 30 -44 4 -96 8 -115 11 -67 9 -536 11 -630
3 -131 -11 -196 -18 -260 -29 -30 -5 -71 -12 -90 -15 -19 -3 -43 -8 -52 -11
-9 -3 -25 -7 -35 -9 -82 -19 -217 -61 -268 -84 -380 -169 -550 -391 -540 -704
3 -101 12 -146 44 -224 l21 -53 -659 0 -658 0 -17 58 c-12 45 -16 103 -16 253
l0 194 77 120 c75 118 233 341 270 380 10 11 34 40 54 65 53 65 162 175 249
250 41 36 77 68 80 71 3 3 46 36 95 73 50 37 97 73 105 79 33 26 128 86 169
107 48 24 435 154 576 194 163 45 338 79 480 92 39 3 102 10 140 14 67 7 470
4 585 -4 30 -3 96 -7 145 -10 50 -4 110 -9 135 -11 25 -3 74 -7 110 -10 173
-15 437 -50 560 -75 25 -5 61 -12 80 -14 204 -30 769 -172 1299 -328 239 -70
284 -86 345 -126 106 -68 272 -141 379 -168 212 -52 317 -64 542 -59 202 4
225 7 368 36 409 84 727 276 906 547 l51 76 1 206 c6 1059 2 1483 -15 1713 -7
83 -17 191 -22 225 -2 17 -6 49 -9 70 -35 249 -118 536 -197 676 -5 11 -22 40
-35 65 -73 133 -202 306 -378 506 -97 110 -303 309 -430 415 -50 41 -92 77
-95 80 -22 22 -300 224 -351 255 -237 144 -311 187 -431 249 -354 185 -767
345 -1188 460 -142 39 -188 50 -280 71 -86 19 -273 57 -345 70 -49 8 -101 17
-115 19 -35 6 -236 35 -287 41 -112 13 -225 25 -298 30 -44 4 -93 8 -110 10
-90 10 -748 27 -758 19z m437 -1718 c49 -4 103 -8 120 -11 17 -2 58 -7 91 -11
79 -9 90 -10 160 -23 33 -6 78 -13 100 -17 22 -3 103 -21 180 -40 382 -92 711
-233 965 -413 174 -122 306 -251 438 -426 60 -79 163 -290 187 -382 40 -152
41 -191 60 -1711 l6 -424 25 -50 c14 -27 23 -52 20 -55 -2 -3 -53 9 -113 27
-59 17 -115 33 -123 35 -8 2 -71 19 -140 39 -183 51 -685 174 -783 191 -17 3
-63 12 -102 20 -38 8 -83 16 -100 19 -16 3 -70 12 -120 20 -49 8 -110 18 -135
21 -25 3 -56 8 -70 10 -14 2 -50 6 -80 10 -30 3 -71 8 -90 10 -34 4 -230 21
-340 30 -256 20 -613 26 -785 12 -376 -29 -613 -86 -1181 -287 -94 -33 -188
-91 -362 -223 -288 -218 -496 -437 -704 -737 -16 -24 -17 60 -17 1453 l-1
1478 41 124 c107 331 305 586 624 807 407 280 1013 468 1630 504 61 4 111 7
112 8 5 5 407 -2 487 -8z m-5324 -5370 c30 -8 70 -20 88 -27 28 -12 36 -11 65
4 47 25 88 30 135 18 68 -19 72 -31 72 -229 0 -191 -5 -211 -62 -231 -89 -31
-184 22 -177 98 6 68 -40 115 -149 150 -51 16 -201 9 -240 -12 -145 -78 -147
-254 -5 -349 22 -15 123 -69 224 -119 101 -50 207 -106 236 -126 346 -230 325
-664 -42 -843 -92 -44 -174 -60 -295 -55 -133 5 -172 13 -257 51 -40 18 -57
18 -73 -1 -33 -40 -100 -50 -160 -23 -50 22 -55 46 -54 256 0 187 1 192 24
217 30 32 79 45 125 35 61 -14 83 -42 90 -116 9 -111 141 -187 322 -187 147 1
253 60 294 165 36 93 -1 213 -87 284 -42 35 -204 126 -398 224 -169 85 -253
178 -290 318 -15 59 -13 156 4 208 46 137 168 247 323 289 67 18 217 18 287 1z
m8192 -10 c108 -52 108 -220 1 -271 -99 -47 -202 -4 -224 94 -21 96 23 170
116 192 38 9 65 5 107 -15z m-7498 -25 c64 -31 94 -74 104 -147 4 -32 7 -157
5 -276 -1 -135 1 -218 7 -218 6 0 10 3 10 8 0 6 66 39 125 63 79 31 250 33
325 3 120 -47 187 -119 226 -243 11 -34 16 -122 20 -336 3 -159 9 -293 12
-297 4 -3 22 -9 40 -11 112 -18 144 -144 49 -194 -38 -19 -390 -23 -435 -4
-69 29 -75 139 -9 181 12 7 40 15 62 18 22 2 43 9 47 15 12 19 2 508 -11 550
-16 49 -64 104 -110 123 -90 39 -224 4 -303 -79 -59 -63 -63 -83 -63 -357 l0
-245 46 -6 c26 -4 56 -12 68 -18 66 -36 54 -151 -19 -181 -25 -10 -214 -15
-392 -11 -14 1 -40 13 -57 27 -26 22 -31 33 -31 70 0 60 38 102 100 110 25 4
48 11 51 16 7 11 12 412 11 892 -1 347 1 335 -74 343 -55 6 -86 26 -103 67
-24 56 2 136 49 157 12 5 62 7 112 6 69 -3 103 -9 138 -26z m2901 16 c97 -32
129 -98 128 -261 -2 -289 -5 -990 -4 -1062 1 -99 15 -121 81 -129 67 -8 100
-44 100 -111 0 -47 -3 -55 -35 -83 -20 -17 -46 -31 -58 -32 -12 -1 -40 -2 -62
-4 -86 -5 -177 44 -221 121 -11 18 -13 17 -50 -18 -71 -70 -180 -110 -304
-113 -303 -8 -531 212 -545 525 -13 293 150 522 415 584 146 35 294 6 403 -78
29 -22 41 -26 47 -16 9 14 17 301 11 401 -2 33 -26 50 -81 56 -74 7 -108 28
-117 73 -4 19 -6 44 -4 55 5 38 42 85 74 94 41 12 183 11 222 -2z m3630 -3
c72 -30 86 -132 25 -186 -16 -16 -43 -29 -58 -29 -15 -1 -39 -2 -54 -3 -55 -2
-53 19 -53 -616 0 -470 3 -592 13 -602 10 -10 64 -13 225 -13 203 0 214 1 253
23 37 22 104 106 104 132 0 19 42 94 63 112 28 25 53 31 103 23 49 -7 103 -52
106 -88 0 -12 2 -29 2 -37 2 -20 -32 -108 -75 -193 -41 -84 -97 -137 -173
-166 -77 -29 -132 -34 -331 -33 -601 2 -617 3 -650 16 -38 16 -56 45 -62 97
-7 61 47 119 110 119 45 0 58 21 64 101 9 114 9 1106 0 1115 -4 4 -32 9 -61
10 -65 3 -91 15 -116 57 -37 60 -16 137 43 162 47 19 475 19 522 -1z m2558 -1
c67 -20 116 -67 131 -126 8 -33 11 -159 10 -427 -1 -303 1 -382 11 -390 25
-21 84 7 172 82 48 40 91 76 97 80 7 4 2 16 -13 32 -44 47 -33 122 23 155 27
16 53 18 216 16 102 -1 195 -5 208 -9 28 -9 52 -55 52 -99 0 -42 -46 -97 -82
-98 -59 -2 -87 -16 -216 -107 -75 -54 -154 -108 -174 -121 -21 -12 -38 -29
-38 -36 0 -15 27 -43 238 -244 181 -172 180 -170 215 -171 108 -1 152 -129 66
-191 -29 -20 -42 -22 -215 -21 -227 0 -242 5 -268 85 -8 26 17 80 50 106 l28
22 -60 62 c-58 59 -112 117 -186 199 -37 42 -84 56 -114 34 -17 -13 -19 -29
-21 -143 -1 -71 1 -133 5 -140 4 -6 23 -13 43 -16 75 -10 108 -42 109 -104 0
-33 -6 -48 -31 -72 -34 -35 -18 -33 -269 -31 -209 2 -180 2 -413 0 -199 -2
-235 4 -256 43 -37 71 0 148 77 161 77 14 70 -12 68 279 -1 241 -3 266 -22
307 -18 39 -82 109 -102 111 -4 0 -16 2 -27 5 -131 26 -264 -37 -322 -154 -16
-33 -18 -64 -18 -287 l0 -250 46 -6 c81 -12 111 -40 111 -104 0 -42 -25 -80
-63 -95 -40 -17 -388 -17 -429 0 -24 10 -33 10 -46 -1 -21 -17 -414 -20 -455
-2 -52 22 -77 86 -54 140 18 42 50 62 116 69 30 3 56 8 59 11 3 2 6 139 8 303
3 330 3 329 -61 331 -46 1 -66 6 -83 20 -57 47 -48 164 15 202 23 13 47 16
122 13 136 -6 186 -36 220 -132 14 -39 16 -90 12 -371 -3 -179 -2 -336 1 -348
5 -18 15 -24 50 -29 24 -4 52 -13 62 -21 12 -8 23 -10 30 -4 6 5 31 12 55 15
24 4 46 8 48 10 7 6 9 59 11 244 4 397 4 394 -60 405 -57 9 -67 14 -86 43 -34
51 -23 122 25 166 16 14 38 19 103 20 102 3 167 -15 206 -56 l31 -30 29 21
c147 104 389 116 532 26 42 -26 93 -82 116 -126 40 -78 45 -118 50 -414 3
-159 9 -293 12 -297 7 -7 67 -21 87 -20 31 1 101 15 109 22 12 12 14 1206 1
1219 -5 5 -26 12 -45 16 -77 12 -91 18 -110 42 -39 49 -19 155 34 182 30 14
162 11 219 -6z m-7501 -571 c94 -24 171 -95 210 -192 21 -51 22 -69 19 -235
-7 -444 -8 -425 14 -441 10 -8 30 -14 43 -14 13 0 37 -13 53 -29 56 -56 29
-162 -49 -188 -63 -22 -175 5 -206 49 -14 19 -15 19 -67 -11 -150 -83 -349
-89 -478 -13 -112 65 -174 169 -175 292 -1 117 54 209 156 261 77 39 394 127
435 120 14 -2 40 35 44 64 5 37 -11 92 -34 112 -36 34 -64 44 -122 44 -75 1
-149 -27 -207 -79 -57 -52 -109 -65 -152 -37 -51 34 -66 90 -37 143 32 59 159
132 274 156 68 14 221 13 279 -2z m2292 -7 c250 -63 414 -279 414 -546 1 -326
-224 -564 -539 -571 -276 -6 -491 144 -565 392 -21 71 -29 210 -16 280 37 197
163 353 342 424 110 44 243 51 364 21z m770 -19 c26 -16 31 -32 28 -91 -1 -29
-27 -60 -69 -83 -14 -9 -15 -14 -3 -43 48 -121 293 -624 308 -633 18 -11 122
171 122 213 0 11 -33 89 -74 174 -41 86 -86 183 -101 216 -20 43 -37 66 -61
81 -37 21 -54 54 -54 101 0 74 31 87 198 85 137 -2 149 -7 159 -69 7 -46 -11
-91 -43 -106 -28 -12 -28 -16 11 -111 38 -96 70 -160 78 -160 13 0 107 219
107 250 0 4 -11 12 -26 18 -50 24 -65 113 -25 156 19 21 29 22 160 21 133 -1
141 -2 166 -25 26 -24 30 -44 19 -99 -5 -23 -15 -35 -44 -47 -33 -15 -43 -28
-78 -103 -82 -175 -106 -228 -138 -306 l-33 -79 46 -88 c26 -49 55 -96 66
-105 18 -17 19 -16 38 7 34 44 206 399 270 558 37 91 38 81 -20 121 -44 32
-34 124 17 152 21 13 58 16 181 15 148 -2 154 -2 172 -25 28 -34 33 -67 18
-108 -15 -38 -28 -48 -70 -57 -26 -6 -32 -14 -70 -101 -83 -191 -321 -666
-361 -721 -73 -101 -188 -122 -272 -49 -16 14 -50 69 -76 122 l-47 97 -37 -90
c-20 -49 -47 -100 -59 -112 -74 -79 -186 -80 -266 -1 -31 31 -162 286 -364
712 -46 94 -71 137 -82 137 -10 0 -32 7 -49 15 -67 32 -65 140 4 169 49 20
320 15 354 -8z m2253 -3475 l4 -1540 -37 -113 c-81 -249 -188 -423 -373 -609
-101 -100 -172 -157 -315 -251 -94 -61 -328 -188 -356 -193 -3 -1 -23 -9 -45
-18 -178 -78 -463 -164 -675 -203 -107 -20 -194 -34 -245 -40 -33 -4 -67 -8
-75 -9 -21 -4 -153 -15 -235 -21 -155 -10 -494 -4 -625 11 -25 3 -70 7 -100
10 -237 24 -549 95 -792 180 -258 90 -521 232 -723 389 -155 120 -321 310
-427 486 -68 114 -97 202 -113 345 -4 33 -8 74 -10 90 -17 141 -29 581 -40
1515 -5 402 -7 447 -23 475 -38 65 -38 65 41 40 661 -217 1070 -326 1539 -410
46 -8 92 -16 103 -18 11 -3 42 -8 68 -11 27 -4 57 -9 67 -11 11 -2 50 -7 87
-10 37 -4 76 -9 86 -11 125 -23 609 -23 781 1 17 2 54 7 81 10 28 3 93 13 145
21 52 8 111 17 130 20 303 46 673 148 890 244 129 57 346 170 502 262 85 50
431 400 499 504 57 87 110 204 145 322 15 50 29 90 32 87 2 -2 6 -697 9 -1544z"/>
<path d="M6113 8234 c-148 -38 -244 -173 -244 -344 -1 -154 66 -271 186 -330
41 -20 65 -25 135 -25 73 0 93 4 140 28 119 61 181 172 181 323 0 75 -22 160
-56 214 -71 112 -212 167 -342 134z"/>
<path d="M5215 7848 c-157 -27 -267 -69 -308 -118 -47 -55 -30 -135 37 -178
36 -23 51 -26 122 -26 67 0 90 5 130 25 81 42 118 116 117 236 -1 66 -14 75
-98 61z"/>
<path d="M7353 8236 c-131 -42 -204 -126 -240 -276 -2 -8 -3 -43 -4 -77 0
-208 142 -355 344 -354 55 0 82 6 131 29 127 60 198 175 197 321 0 157 -65
272 -187 332 -76 37 -172 47 -241 25z"/>
</g>
</svg>
